<?xml version="1.0" standalone="no"?>
<!DOCTYPE svg PUBLIC "-//W3C//DTD SVG 20010904//EN"
 "http://www.w3.org/TR/2001/REC-SVG-20010904/DTD/svg10.dtd">
<svg version="1.0" xmlns="http://www.w3.org/2000/svg"
 width="1700.000000pt" height="1700.000000pt" viewBox="0 0 1700.000000 1700.000000"
 preserveAspectRatio="xMidYMid meet">
<metadata>
Created by potrace 1.11, written by Peter Selinger 2001-2013
</metadata>
<g transform="translate(0.000000,1700.000000) scale(0.100000,-0.100000)"
fill="#000000" stroke="none">
<path d="M16127 12524 c-1 -1 -36 -5 -77 -8 -41 -4 -126 -16 -188 -28 l-113
-21 -68 -66 c-38 -38 -77 -87 -90 -116 -22 -47 -23 -53 -10 -118 14 -77 41
-112 111 -148 43 -22 159 -54 230 -64 24 -3 54 -8 68 -10 14 -3 57 -7 96 -10
70 -5 73 -4 130 34 33 21 86 48 119 61 67 24 239 60 264 55 9 -2 46 -13 84
-23 37 -11 69 -17 71 -13 2 3 13 40 24 81 28 107 21 140 -40 194 -123 107
-288 175 -468 191 -94 9 -140 12 -143 9z"/>
<path d="M6213 11219 c-40 -10 -42 -11 -61 -77 -20 -65 -40 -139 -48 -174 -2
-10 -6 -26 -8 -35 -2 -10 -10 -40 -16 -68 -6 -27 -13 -57 -16 -65 -27 -107
-92 -475 -119 -675 -9 -66 -18 -131 -20 -145 -2 -14 -6 -54 -10 -90 -4 -36 -8
-76 -10 -90 -4 -31 -14 -126 -20 -200 -2 -30 -7 -75 -9 -100 -3 -25 -8 -83
-11 -130 -3 -47 -8 -105 -10 -130 -5 -52 -16 -255 -20 -350 -2 -36 -7 -157
-11 -270 -7 -177 -11 -1005 -6 -1203 2 -89 -3 -125 -35 -222 -45 -140 -132
-292 -248 -430 -56 -67 -249 -263 -311 -315 -16 -14 -54 -46 -84 -72 -30 -25
-100 -80 -155 -121 -55 -42 -111 -84 -125 -95 -53 -41 -340 -231 -455 -301
-66 -41 -140 -86 -165 -101 -125 -77 -352 -200 -377 -205 -48 -9 -75 -14 -173
-34 -86 -17 -99 -17 -140 -4 -61 20 -124 58 -149 89 -23 29 -45 125 -37 159 6
23 146 209 241 320 406 475 906 851 1425 1072 202 86 202 86 266 74 71 -13
167 -14 214 -2 19 6 50 12 68 15 19 2 36 7 39 9 9 9 -28 192 -43 215 -122 186
-789 47 -1302 -272 -245 -152 -515 -386 -712 -618 -35 -40 -124 -134 -199
-208 -199 -197 -297 -325 -371 -484 -54 -113 -81 -221 -81 -321 0 -96 5 -121
28 -149 45 -55 194 -197 247 -236 75 -54 195 -115 272 -136 78 -21 207 -25
292 -9 87 17 367 155 697 345 145 83 409 259 516 344 312 248 520 464 683 709
50 75 61 87 80 81 47 -15 87 -60 149 -171 66 -117 69 -132 73 -333 2 -102 6
-201 9 -220 8 -43 85 -251 126 -338 16 -35 29 -65 29 -67 0 -2 16 -32 37 -67
80 -138 124 -175 199 -163 42 6 43 7 37 38 -11 63 -53 178 -80 218 -25 39 -26
41 -13 97 18 73 17 70 8 116 -10 46 -43 120 -70 158 -23 33 -24 38 -33 163 -4
55 -9 116 -10 135 -10 96 -19 432 -18 651 l1 245 31 45 c252 359 429 658 549
929 18 41 39 89 47 105 78 177 171 488 200 670 27 175 33 256 30 425 -3 154
-5 187 -19 280 -11 70 -13 73 -35 75 -42 3 -47 19 -29 104 l17 80 -34 123
c-194 707 -359 1151 -491 1327 -67 90 -109 105 -221 80z m275 -1194 c14 -22
47 -68 74 -102 44 -56 47 -62 29 -68 -24 -7 -35 -36 -27 -73 4 -15 9 -40 11
-57 3 -16 14 -77 25 -135 11 -58 22 -116 25 -130 3 -14 9 -47 15 -75 6 -27 13
-61 15 -75 18 -88 24 -333 12 -464 -31 -326 -133 -642 -306 -950 -39 -68 -168
-263 -180 -270 -7 -5 -11 8 -12 41 -1 26 -3 66 -4 88 -26 353 -26 804 1 995 9
66 26 144 40 183 14 38 19 99 29 322 11 253 25 411 51 595 27 196 57 270 109
277 16 3 32 6 34 9 3 3 12 -12 20 -33 8 -21 26 -56 39 -78z"/>
<path d="M12670 9314 c-30 -25 -84 -60 -120 -78 -50 -25 -98 -65 -211 -177
-124 -123 -362 -350 -490 -470 -275 -256 -287 -267 -415 -384 -54 -49 -106
-98 -115 -107 -18 -17 -213 -195 -283 -258 -21 -19 -61 -56 -89 -82 -28 -26
-64 -60 -81 -74 -35 -31 -232 -210 -257 -234 -9 -8 -34 -31 -55 -50 -144 -129
-236 -211 -279 -251 -27 -25 -72 -66 -100 -90 -27 -24 -58 -53 -68 -63 -9 -11
-19 -17 -21 -15 -2 2 -7 69 -10 149 -7 163 -12 218 -26 291 -11 57 -18 72 -30
64 -4 -2 -25 -7 -46 -11 -22 -3 -39 -7 -40 -7 0 -1 -45 -117 -99 -257 -53
-140 -117 -304 -140 -365 -24 -60 -63 -164 -88 -230 -101 -266 -94 -254 -163
-280 -67 -25 -167 -68 -284 -122 -41 -19 -86 -37 -100 -39 -14 -3 -70 -13
-125 -24 -55 -11 -113 -22 -130 -25 -56 -9 -90 -16 -160 -30 -143 -28 -213
-36 -335 -37 -97 -1 -237 9 -251 18 -3 2 -21 6 -40 9 -112 19 -289 95 -401
172 -42 30 -47 38 -56 85 -14 84 -7 294 12 367 35 125 94 231 184 323 l45 47
41 -40 c67 -67 98 -78 186 -64 80 13 88 16 218 97 51 32 95 58 98 58 7 0 225
162 266 198 114 98 153 135 238 221 159 161 307 345 427 529 41 64 84 129 94
144 11 15 19 29 19 31 0 2 22 42 48 88 27 46 77 142 112 212 l64 129 -16 41
c-9 26 -27 51 -47 64 -35 24 -59 24 -146 1 -22 -5 -48 -12 -58 -14 -10 -2 -27
-6 -37 -9 -10 -3 -27 -7 -37 -9 -32 -7 -195 -55 -288 -85 -80 -26 -102 -39
-199 -118 -299 -241 -543 -460 -807 -723 -323 -322 -514 -552 -656 -790 -148
-250 -203 -410 -209 -607 -2 -108 -2 -113 25 -150 28 -39 65 -125 77 -178 9
-40 26 -58 114 -120 222 -156 469 -254 715 -284 72 -9 89 -7 170 15 262 72
811 253 920 304 142 65 239 113 279 139 48 30 50 30 67 12 10 -10 23 -37 29
-59 19 -74 65 -86 204 -56 70 16 76 19 112 68 22 28 46 58 54 66 8 9 35 40 60
70 38 46 234 272 265 306 11 12 144 160 183 203 125 139 328 348 652 671 383
382 452 450 730 711 199 187 205 192 316 294 54 50 116 106 136 126 21 19 68
62 105 95 36 32 74 66 82 74 9 9 57 52 106 96 87 79 92 81 167 96 l76 15 9
-47 c9 -43 6 -55 -39 -168 -90 -224 -123 -410 -92 -525 39 -147 133 -252 281
-309 39 -15 48 -15 143 4 68 13 119 30 152 49 27 16 51 29 54 29 2 0 21 11 42
23 82 52 426 230 542 281 198 87 314 99 505 50 72 -19 200 -70 237 -96 14 -10
29 -18 32 -18 11 0 87 -52 184 -125 136 -102 136 -102 157 -81 10 9 28 24 41
32 27 18 26 24 -43 159 -95 189 -210 336 -328 420 -63 45 -154 92 -197 101
-132 28 -200 31 -306 14 -80 -13 -261 -74 -432 -145 -74 -31 -139 -57 -145
-58 -5 -2 -36 -15 -69 -30 -32 -15 -62 -27 -66 -27 -4 0 -20 -7 -36 -15 -17
-8 -89 -41 -162 -74 -134 -60 -138 -61 -146 -19 -18 93 -18 105 13 192 53 149
74 244 77 351 3 126 -22 260 -59 308 -44 58 -199 120 -329 132 -51 5 -55 3
-108 -41z m-3776 -1177 c-73 -143 -167 -261 -364 -457 -145 -144 -202 -196
-355 -325 -74 -61 -83 -66 -118 -62 -37 5 -77 37 -77 61 0 49 368 430 755 780
22 20 49 36 60 37 23 1 68 8 71 12 2 1 14 4 29 5 l25 2 -26 -53z"/>
<path d="M16390 9215 c-50 -26 -141 -109 -217 -200 -192 -229 -510 -757 -820
-1362 l-47 -92 17 -68 c39 -149 108 -253 197 -298 55 -28 94 -35 136 -24 32 9
39 20 107 169 19 41 60 129 92 195 32 66 74 156 95 200 21 44 61 130 90 190
29 61 65 137 80 170 15 33 50 107 78 165 87 185 144 303 172 365 51 109 170
360 179 376 18 31 -1 93 -48 161 -25 37 -51 70 -56 72 -6 2 -31 -7 -55 -19z"/>
<path d="M2246 7205 c-196 -101 -707 -440 -812 -539 -6 -6 -45 -40 -85 -76
-108 -95 -433 -418 -511 -508 -37 -42 -81 -93 -98 -112 -111 -127 -279 -371
-360 -525 -111 -208 -187 -478 -166 -588 8 -42 106 -151 194 -214 119 -86 267
-144 410 -159 403 -43 739 62 1714 538 200 98 227 114 224 132 -2 12 -10 51
-16 87 l-13 66 -111 -58 c-167 -86 -467 -195 -788 -285 -10 -3 -18 0 -18 7 0
14 -29 38 -46 39 -7 0 -52 -31 -102 -69 -50 -38 -98 -73 -107 -78 -14 -8 -53
-3 -122 18 -6 2 -35 -13 -63 -34 l-52 -39 -95 7 c-52 3 -104 8 -116 10 -12 2
-44 7 -72 10 -82 12 -88 13 -130 24 -22 5 -57 14 -77 19 -52 13 -159 66 -184
90 -49 47 -65 88 -65 164 0 256 254 623 768 1108 115 109 282 259 357 321 16
13 46 38 65 55 29 25 359 293 396 322 6 4 55 44 111 87 56 44 115 91 132 104
l31 23 -20 22 c-11 11 -28 33 -37 49 -9 15 -23 27 -32 27 -9 0 -56 -20 -104
-45z"/>
</g>
</svg>
