<?xml version="1.0" standalone="no"?>
<!DOCTYPE svg PUBLIC "-//W3C//DTD SVG 20010904//EN"
 "http://www.w3.org/TR/2001/REC-SVG-20010904/DTD/svg10.dtd">
<svg version="1.0" xmlns="http://www.w3.org/2000/svg"
 width="500.000000pt" height="500.000000pt" viewBox="0 0 500.000000 500.000000"
 preserveAspectRatio="xMidYMid meet">
<metadata>
Created by potrace 1.11, written by Peter Selinger 2001-2013
</metadata>
<g transform="translate(0.000000,500.000000) scale(0.100000,-0.100000)"
fill="#000000" stroke="none">
<path d="M4566 3960 c-91 -25 -128 -80 -88 -130 15 -18 31 -23 88 -27 63 -5
74 -2 128 26 32 17 73 31 91 31 25 0 34 5 38 21 9 32 -1 46 -49 69 -55 27
-132 31 -208 10z"/>
<path d="M1707 3228 c-22 -18 -39 -161 -41 -358 -1 -146 10 -416 19 -443 2 -7
6 -43 9 -82 3 -38 11 -115 17 -170 15 -120 14 -152 -7 -214 -31 -94 -182 -268
-344 -393 -142 -110 -155 -118 -206 -129 -45 -10 -57 -10 -77 4 -13 9 -27 24
-29 35 -7 27 66 145 153 249 119 142 315 283 394 283 56 0 69 11 60 49 -5 22
-14 33 -31 37 -89 22 -264 -57 -402 -181 -74 -67 -262 -319 -284 -380 -35
-101 -22 -149 56 -201 45 -30 67 -37 121 -42 l66 -5 117 79 c154 104 291 236
366 353 51 79 61 89 78 80 33 -18 66 -81 73 -144 9 -75 76 -204 117 -226 32
-17 40 3 18 44 -11 20 -20 50 -20 66 0 15 -8 39 -18 52 -18 24 -40 126 -62
286 l-11 82 42 83 c56 112 106 247 125 341 21 104 16 297 -9 346 -9 19 -17 42
-17 51 0 16 -16 61 -40 115 -5 11 -21 49 -37 85 -44 101 -95 190 -129 227 -35
36 -42 39 -67 21z m158 -396 c-2 -7 0 -24 6 -39 75 -199 67 -411 -24 -588 -29
-57 -25 -63 -51 85 -21 121 -27 590 -7 614 12 15 17 13 47 -21 18 -21 31 -44
29 -51z"/>
<path d="M4792 2972 c-54 -57 -159 -275 -227 -469 l-18 -52 26 -40 c26 -39 63
-59 89 -48 7 2 55 130 106 283 52 154 96 284 98 290 3 7 -6 25 -19 40 l-25 28
-30 -32z"/>
<path d="M3686 2881 c-19 -16 -54 -52 -78 -82 -23 -30 -161 -193 -308 -363
-146 -170 -271 -316 -277 -324 -17 -21 -18 -18 -31 62 -6 37 -14 71 -17 74
-15 15 -36 -37 -70 -178 -39 -161 -49 -190 -65 -190 -5 0 -31 -13 -57 -29 -27
-16 -97 -44 -156 -62 -93 -27 -120 -31 -185 -27 -87 6 -158 31 -167 59 -12 36
-6 126 9 164 25 59 34 67 58 51 40 -28 102 7 210 118 96 99 176 230 232 380
21 56 23 66 10 77 -18 15 -57 7 -136 -28 -53 -23 -78 -44 -155 -128 -239 -258
-363 -464 -363 -600 0 -109 104 -188 264 -201 69 -6 74 -4 182 44 116 52 190
91 237 124 l28 20 20 -20 c16 -18 23 -19 49 -10 23 8 51 40 113 132 131 194
368 494 591 749 58 65 83 87 101 87 30 0 29 3 9 -86 -20 -85 -14 -128 25 -174
25 -30 35 -35 73 -35 39 0 59 10 159 76 63 42 125 82 138 89 54 28 178 4 267
-51 22 -14 33 -16 42 -7 25 25 -94 155 -162 178 -77 25 -181 -12 -376 -135
l-40 -25 -10 24 c-5 15 -5 37 1 58 12 42 12 120 -1 152 -11 31 -44 52 -92 59
-30 5 -43 1 -72 -22z m-1076 -479 c0 -26 -52 -105 -132 -199 -69 -82 -81 -90
-106 -75 -15 10 33 81 139 208 68 82 99 102 99 66z"/>
<path d="M642 1875 c-63 -44 -177 -149 -238 -220 -172 -198 -261 -365 -265
-497 -2 -43 2 -54 22 -70 65 -53 153 -71 254 -53 61 11 215 88 347 174 93 60
118 81 118 99 0 25 -8 27 -35 8 -65 -44 -229 -118 -248 -110 -7 2 -24 -7 -37
-21 -13 -14 -33 -25 -45 -25 -11 0 -26 -5 -32 -11 -14 -14 -158 -14 -194 -1
-134 51 -21 270 323 628 90 93 109 125 75 124 -7 -1 -27 -12 -45 -25z"/>
</g>
</svg>
