<?xml version="1.0" encoding="UTF-8" standalone="no"?>
<svg
   xmlns:dc="http://purl.org/dc/elements/1.1/"
   xmlns:cc="http://creativecommons.org/ns#"
   xmlns:rdf="http://www.w3.org/1999/02/22-rdf-syntax-ns#"
   xmlns:svg="http://www.w3.org/2000/svg"
   xmlns="http://www.w3.org/2000/svg"
   version="1.1"
   id="svg2"
   viewBox="0 0 244.95116 83.05664"
   height="23.44043mm"
   width="69.130661mm">
  <defs
     id="defs4" />
  <metadata
     id="metadata7">
    <rdf:RDF>
      <cc:Work
         rdf:about="">
        <dc:format>image/svg+xml</dc:format>
        <dc:type
           rdf:resource="http://purl.org/dc/dcmitype/StillImage" />
        <dc:title></dc:title>
      </cc:Work>
    </rdf:RDF>
  </metadata>
  <g
     transform="translate(-212.1317,-400.91968)"
     id="layer1">
    <g
       id="g3356">
      <path
         id="path3341"
         style="font-style:normal;font-variant:normal;font-weight:normal;font-stretch:normal;font-size:180px;line-height:125%;font-family:'Vineyard Magazines';-inkscape-font-specification:'Vineyard Magazines';letter-spacing:0px;word-spacing:0px;fill:#ffffff;fill-opacity:1;stroke:none;stroke-width:1px;stroke-linecap:butt;stroke-linejoin:miter;stroke-opacity:1"
         d="m 247.55162,445.04077 0.79102,1.58203 q -30.67383,15.38086 -30.67383,23.64258 0,3.16406 9.40429,5.44922 l 1.58204,-0.79102 1.58203,0.79102 3.16406,-1.58203 q 0.79102,0 0.79102,0.79101 9.14062,-0.79101 13.35937,-2.37304 l 0,2.37304 q -16.34766,4.7461 -22.06055,4.7461 -9.84375,0 -13.35937,-7.11914 l 0,-0.79102 q 2.54883,-10.37109 22.85156,-21.97265 10.81055,-4.7461 12.56836,-4.7461 z" />
      <path
         id="path3343"
         style="font-style:normal;font-variant:normal;font-weight:normal;font-stretch:normal;font-size:180px;line-height:125%;font-family:'Vineyard Magazines';-inkscape-font-specification:'Vineyard Magazines';letter-spacing:0px;word-spacing:0px;fill:#ffffff;fill-opacity:1;stroke:none;stroke-width:1px;stroke-linecap:butt;stroke-linejoin:miter;stroke-opacity:1"
         d="m 311.536,400.91968 q 3.42773,0 5.09765,22.85156 l -0.79101,1.75781 q 0,0.79102 0.79101,0.79102 0,15.64453 -17.7539,32.25586 -1.75782,7.73437 -2.54883,16.08398 0.79101,1.49414 0.79101,3.33985 l -0.79101,1.75781 q 0.79101,1.49414 0.79101,3.33984 l 0,0.87891 -0.79101,0 q -2.10938,0 -3.42774,-9.31641 l 0,-0.8789 0.87891,-5.09766 q -1.14258,-5.00977 -2.54883,-5.00977 -8.78906,9.93164 -29.70703,15.20508 l -0.79102,0 q -5.97656,0 -10.19531,-7.64648 0,-6.67969 10.19531,-12.65625 12.12891,-10.19531 25.40039,-10.19531 l 0.87891,0 q 5.09766,0.52734 5.09766,2.54882 l 0,2.54883 -1.75782,0 q -1.8457,0 -3.33984,-0.8789 -16.43555,2.63671 -29.70703,15.29296 l 0,1.66993 q 0,1.23046 2.54883,2.54882 l 4.21875,0 q 31.37695,-10.19531 31.37695,-22.06054 5.97656,-33.04688 14.41406,-49.13086 l 1.66993,0 z m -10.98633,49.13086 q 9.84375,-9.05274 10.98633,-21.18164 l 0,-7.64649 q 0,-0.79101 0.8789,-0.79101 -1.66992,-2.8125 -1.66992,-4.21875 l -0.87891,0 q -1.66992,0 -5.09765,15.20507 -2.54883,3.7793 -4.21875,18.63282 z" />
      <path
         id="path3345"
         style="font-style:normal;font-variant:normal;font-weight:normal;font-stretch:normal;font-size:180px;line-height:125%;font-family:'Vineyard Magazines';-inkscape-font-specification:'Vineyard Magazines';letter-spacing:0px;word-spacing:0px;fill:#ffffff;fill-opacity:1;stroke:none;stroke-width:1px;stroke-linecap:butt;stroke-linejoin:miter;stroke-opacity:1"
         d="m 348.53795,442.31616 q 1.49414,0 1.49414,2.02149 -10.45899,14.67773 -24.96094,19.16015 l -1.49414,0 q -1.14258,0 -2.28516,-2.02148 -5.27343,3.07617 -5.27343,10.19531 4.92187,5.44922 13.62304,5.44922 l 6.76758,0 q 5.36133,-1.31836 6.06446,-1.31836 1.05468,0 2.28515,2.02148 l -1.58203,0.70313 -0.70312,0 q -0.79102,0 -0.79102,-0.70313 -3.7793,2.02149 -19.59961,3.42774 -6.85547,-1.93359 -11.33789,-7.4707 0,-2.28516 -0.79102,-3.42774 0,-11.25 30.23438,-27.33398 5.18555,-0.70313 8.34961,-0.70313 z m -24.25781,15.73242 q 0.26367,1.31836 1.58203,1.31836 10.98633,-5.97656 13.53515,-10.19531 l -2.19726,0 q -9.22852,5.625 -12.91992,8.87695 z" />
      <path
         id="path3347"
         style="font-style:normal;font-variant:normal;font-weight:normal;font-stretch:normal;font-size:180px;line-height:125%;font-family:'Vineyard Magazines';-inkscape-font-specification:'Vineyard Magazines';letter-spacing:0px;word-spacing:0px;fill:#ffffff;fill-opacity:1;stroke:none;stroke-width:1px;stroke-linecap:butt;stroke-linejoin:miter;stroke-opacity:1"
         d="m 394.41685,443.10718 q 4.48243,1.40625 5.00977,3.51562 l 0,2.19727 q 0,2.63672 -2.90039,7.20703 l 0,2.10937 q 11.86523,-2.90039 15.11719,-2.90039 8.34961,0 10.72265,11.51368 l -1.40625,0.70312 q -5.625,-7.20703 -11.51367,-7.20703 -2.98828,0.17578 -12.91992,3.60352 l -2.8125,0 q -3.60352,-1.84571 -3.60352,-5.7129 0,-2.7246 3.60352,-7.91015 l 0,-1.40625 -2.19727,0 q -30.67382,18.54492 -45.8789,31.55273 l -2.19727,0 q -1.40625,0 -1.40625,-1.40625 l 0,-2.19726 9.31641,-15.0293 1.40625,0 0,2.10938 -0.70313,5.00976 q 31.11328,-18.89648 38.75977,-24.3457 1.23047,0 3.60351,-1.40625 z" />
      <path
         id="path3349"
         style="font-style:normal;font-variant:normal;font-weight:normal;font-stretch:normal;font-size:180px;line-height:125%;font-family:'Vineyard Magazines';-inkscape-font-specification:'Vineyard Magazines';letter-spacing:0px;word-spacing:0px;fill:#ffffff;fill-opacity:1;stroke:none;stroke-width:1px;stroke-linecap:butt;stroke-linejoin:miter;stroke-opacity:1"
         d="m 443.54771,408.56616 2.02149,0 q 7.91015,0 11.51367,5.18555 l 0,1.05469 -1.05469,2.10937 -2.10937,-1.05469 -2.02149,0 q -2.37304,0 -4.21875,1.05469 -7.29492,-1.8457 -7.29492,-4.21875 l 0,-0.9668 q 0,-1.49414 3.16406,-3.16406 z m 1.05469,45.87891 0.9668,2.10937 0,1.05469 -16.69922,22.93945 -0.9668,0 q -3.16406,-1.05468 -3.16406,-6.24023 15.46875,-19.86328 19.86328,-19.86328 z" />
    </g>
  </g>
</svg>
